<svg data-v-16bc8e0b="" version="1.0" xmlns="http://www.w3.org/2000/svg" width="100%" height="100%" viewBox="0 0 340.000000 250.000000" preserveAspectRatio="xMidYMid meet" color-interpolation-filters="sRGB" class="el-tooltip" style="margin: auto;"><rect data-v-16bc8e0b="" x="0" y="0" width="100%" height="100%" fill="#fff" fill-opacity="1"></rect> <rect data-v-16bc8e0b="" x="0" y="0" width="100%" height="100%" fill="url(#watermark)" fill-opacity="1" class="watermarklayer"></rect> <g data-v-16bc8e0b="" fill="#1A1A1A" transform="translate(106.87423324584961,79.4749984741211)"><g transform="translate(40.12576675415039,0)"><rect fill="#1A1A1A" fill-opacity="0" stroke="#1A1A1A" rx="23" ry="23" x="0" y="0" width="46" height="46"></rect> <svg x="9.220451559069305" y="7.552862894243333" width="27.55909688186139" height="30.894274211513334"><svg xmlns="http://www.w3.org/2000/svg" viewBox="0 0 53.38 59.84"><title>c5</title><g data-name="图层 2"><g data-name="Layer 1"><path d="M53.38 17.13a16.31 16.31 0 0 0-3-9.7C44 27.57 20.81 25.36 3.26 20.36A38.22 38.22 0 0 0 0 35.67c0 14.9 8.45 24.17 24.87 24.17 6.34 0 14.67-1.06 21.35-4.46l-1.17-12.2A36.06 36.06 0 0 1 29 46.81c-4.93 0-8.8-1.52-11-4.46a11.32 11.32 0 0 1-1.76-5.87c22.95.59 37.14-4.69 37.14-19.35z" fill="#1a1a1a"></path><path d="M48.05 4.83C44.5 1.72 39.41 0 33.44 0A31.8 31.8 0 0 0 7.18 13.51C22.31 17.22 40.19 18 48.05 4.83z" fill="#d51007"></path><path d="M50.41 7.43a15.4 15.4 0 0 0-2.36-2.6C40.19 18 22.31 17.22 7.18 13.51a37.15 37.15 0 0 0-3.93 6.86C20.81 25.36 44 27.57 50.41 7.43z" fill="none"></path></g></g></svg></svg> <!----></g> <g transform="translate(0,53)"><g><g><path transform="translate(-1.134,29.4)" d="M11.68 0.29C14.99 0.29 18.61-1.05 20.62-3.70L19.15-4.87C17.60-2.81 14.41-1.72 11.68-1.72C7.39-1.72 3.65-4.54 3.23-9.41L21.92-9.41C22.72-17.51 17.51-21.08 11.68-21.08C5.84-21.08 1.13-16.59 1.13-10.37C1.13-3.78 5.84 0.29 11.68 0.29ZM3.23-11.21C3.70-16.30 7.39-19.19 11.68-19.19C16.67-19.19 20.03-16.34 20.08-11.21ZM27.26-29.40L27.26 0L29.32 0L29.32-29.40ZM52.96-20.75L52.96-16.21C51.24-19.45 47.84-21 44.48-21C38.68-21 33.94-16.72 33.94-10.37C33.94-4.03 38.68 0.34 44.48 0.34C47.84 0.34 50.95-1.18 52.96-4.41L52.96 0L55.02 0C55.02-6.93 55.02-13.82 55.02-20.75ZM44.48-19.03C56.03-19.03 56.03-1.68 44.48-1.68C39.77-1.68 35.99-5.17 35.99-10.37C35.99-15.58 39.77-19.03 44.48-19.03ZM71.15-1.60C66.40-1.60 62.75-5.25 62.75-10.33C62.75-15.41 66.32-19.07 71.15-19.07C75.85-19.07 79.63-16.21 79.63-10.37C79.63-4.54 75.85-1.60 71.15-1.60ZM62.58 8.65L62.58-4.79C64.34-1.34 67.62 0.38 71.15 0.38C76.99 0.38 81.69-3.40 81.69-10.37C81.69-17.05 77.24-20.83 71.61-21.04C67.58-21.04 64.26-18.98 62.62-15.83L62.62-20.75L60.61-20.75L60.61 8.65ZM102.23-18.31C100.17-20.24 97.52-21.08 94.50-21.08C90.30-21.13 86.23-19.36 86.27-15.29C86.31-11.13 90.30-10.37 94.33-9.70C97.73-9.16 101.18-8.57 101.09-5.59C100.97-2.31 97.15-1.64 94.63-1.64C91.85-1.64 88.75-2.69 87.02-5.17L85.51-3.82C87.32-1.05 90.93 0.34 94.58 0.34C98.24 0.34 102.98-0.88 103.11-5.46C103.32-10.29 98.24-10.92 94.54-11.55C91.94-12.01 88.33-12.56 88.24-15.33C88.16-17.98 91.27-19.19 94.50-19.15C96.81-19.15 98.87-18.82 100.97-16.97ZM117.05 0.29C120.37 0.29 123.98-1.05 126-3.70L124.53-4.87C122.98-2.81 119.78-1.72 117.05-1.72C112.77-1.72 109.03-4.54 108.61-9.41L127.30-9.41C128.10-17.51 122.89-21.08 117.05-21.08C111.22-21.08 106.51-16.59 106.51-10.37C106.51-3.78 111.22 0.29 117.05 0.29ZM108.61-11.21C109.07-16.30 112.77-19.19 117.05-19.19C122.05-19.19 125.41-16.34 125.45-11.21Z"></path></g> <!----></g> <!----></g></g></svg>
