<?xml version="1.0" standalone="no"?>
<!DOCTYPE svg PUBLIC "-//W3C//DTD SVG 1.1//EN" "http://www.w3.org/Graphics/SVG/1.1/DTD/svg11.dtd">
<svg t="1517203332406" class="icon" style="" viewBox="0 0 1024 1024" version="1.1" xmlns="http://www.w3.org/2000/svg" p-id="4570" xmlns:xlink="http://www.w3.org/1999/xlink" width="64" height="64">
<defs>
  <style type="text/css"></style>
</defs>
  <!-- 大圆 -->
  <path fill="#ff0000" d="M512.149985 512.049995m-511.950005 0a511.950005 511.950005 0 1 0 1023.90001 0 511.950005 511.950005 0 1 0-1023.90001 0Z" p-id="4571"></path>
  <!-- 小圆 -->
  <path fill="#000000" d="M634.738014 267.273899l-122.288058 265.974026L440.956938 734.92823l-125.087785 37.796309L286.971975 782.923543l-13.998633 23.997656 314.16932 211.579338c247.175862-36.296455 436.957328-249.175666 436.957328-506.450542 0-39.596133-4.499561-78.192364-12.99873-115.288741L740.927644 208.979592l-106.18963 58.294307z" p-id="4572"></path>
  <!-- 沙漏背景 -->
  <path fill="#FFFFFF" d="M650.03652 582.14315l-59.3942-56.894444c-13.998633-13.398692 0-27.197344 0-27.197344l63.79377-60.994043c43.295772-41.395957 41.495948-101.79006 41.495948-101.79006V256.974905l-183.382092-15.298506L329.167855 256.974905v78.292354s-1.799824 60.294112 41.495947 101.79006l63.793771 60.994043s13.998633 13.798652 0 27.197344L374.963382 582.14315s-45.795528 43.495752-45.795527 112.888976v77.692413h366.664193v-77.692413c0-69.393223-45.795528-112.888976-45.795528-112.888976z" p-id="4573"></path>
  <!-- 沙漏上沙子 -->
  <path fill="#96de1f" d="M497.25144 679.83361l0.499951-168.083586c0.19998-31.496924-14.598574-51.394981-20.298017-57.094424L412.959672 392.961625c-21.897862-20.897959-22.697783-55.494581-22.697784-55.794551h244.476126s-0.399961 34.496631-22.697784 55.794551l-63.79377 60.994043c-6.499365 6.399375-20.797969 26.297432-20.597988 57.794356v168.083586h-30.397032z" p-id="4574"></path>
  <!-- 沙漏下沙子 -->
  <path fill="red" d="M650.03652 756.22615H374.963382L512.549946 633.938092l137.486574 122.288058z" p-id="4576"></path>
  <!-- 沙漏上下垫子 -->
  <path fill="#42ef34" d="M757.026072 236.676887c0 16.89835-13.698662 30.597012-30.597012 30.597012H298.570843c-16.89835 0-30.597012-13.698662-30.597012-30.597012s13.698662-30.597012 30.597012-30.597012h427.758226c16.99834 0.09999 30.697002 13.798652 30.697003 30.597012z m0 550.046285c0 16.89835-13.698662 30.597012-30.597012 30.597012H298.570843c-16.89835 0-30.597012-13.698662-30.597012-30.597012 0-16.89835 13.698662-30.597012 30.597012-30.597012h427.758226c16.99834 0.09999 30.697002 13.798652 30.697003 30.597012z" p-id="4575"></path>
</svg>
